<svg id="eBwQm0GHEqs1" xmlns="http://www.w3.org/2000/svg" xmlns:xlink="http://www.w3.org/1999/xlink" viewBox="0 0 300 300" shape-rendering="geometricPrecision" text-rendering="geometricPrecision" project-id="63409477ce684d06b578e2f5b16975e5" export-id="ac59c1e826a1469cb2f587789dd8ed95" cached="false"><defs><linearGradient id="eBwQm0GHEqs2-fill" x1="0" y1="0.5" x2="0" y2="1" spreadMethod="pad" gradientUnits="objectBoundingBox" gradientTransform="translate(0 0)"><stop id="eBwQm0GHEqs2-fill-0" offset="0%" stop-color="#f47f00"/><stop id="eBwQm0GHEqs2-fill-1" offset="100%" stop-color="#fb5a20"/></linearGradient><linearGradient id="eBwQm0GHEqs4-fill" x1="0" y1="0.5" x2="0" y2="0.963918" spreadMethod="pad" gradientUnits="objectBoundingBox" gradientTransform="translate(0 0)"><stop id="eBwQm0GHEqs4-fill-0" offset="0%" stop-color="#f8a34f"/><stop id="eBwQm0GHEqs4-fill-1" offset="100%" stop-color="#ff9124"/></linearGradient></defs><path d="M83.88328,19.207092L37.032904,136.683629L29.216942,192.62497l31.02684,80.614311l84.215711,14.867096q93.08052-14.867098,94.557989-14.867098t39.150069-93.49838l-9.366342-55.114606-54.16196-111.32908c-3.973997,10.302954-7.420142,19.066341-10.338436,26.290162-6.846482,16.947493-10.78768,25.42124-11.823594,25.42124-1.114744,0-8.958047-11.214265-16.761016-21.797231-7.709974-10.456841-15.380569-20.29734-16.482028-18.094422-1.028458,2.056916-5.159168,9.125162-12.39213,21.204737-3.15781,5.273775-6.906934,11.502747-11.247369,18.686916-10.150374-9.561947-18.806757-17.629903-25.96915-24.203869-16.816112-15.434582-25.396861-22.6338-25.742246-21.597654Z" transform="matrix(1.074948 0 0 1.064516-11.242194-9.722673)" fill="url(#eBwQm0GHEqs2-fill)" stroke-width="0.6"/><g transform="translate(.000002 0.000001)"><ellipse rx="93.634573" ry="93.634573" transform="matrix(.912227 0 0 0.912227 150 190.408767)" fill="url(#eBwQm0GHEqs4-fill)" stroke-width="0"/><path d="M77.234671,182.292627c0,0-35.459246-77.299846-35.459246-77.299846s82.738242,9.511036,82.738242,9.511036q-47.278996,67.78881-47.278996,67.78881Z" transform="matrix(.953858 0.300257-.300257 0.953858 46.320149-10.525836)" fill="#f8a34f" stroke-width="0.6"/><path d="M77.234671,182.292627c0,0-35.459246-77.299846-35.459246-77.299846s82.738242,9.511036,82.738242,9.511036q-47.278996,67.78881-47.278996,67.78881Z" transform="matrix(.499165 0.866507 0.866507-.499165 71.974555 151.109841)" fill="#f8a34f" stroke-width="0.6"/></g><path d="M97.180498,161.81026l39.891652.560754c0,0,3.693672,24.184695-21.423294,24.174747s-18.468358-24.735501-18.468358-24.735501Z" transform="matrix(.619485 0.245171-.212636 0.537278 58.692081 55.136761)" fill="#fff" stroke-width="0.6"/><path d="M97.180498,161.81026l39.891652.560754c0,0,3.693672,24.184695-21.423294,24.174747s-18.468358-24.735501-18.468358-24.735501Z" transform="matrix(.657931-.104866 0.09095 0.570622 59.631358 95.133926)" fill="#fff" stroke-width="0.6"/></svg>
